<?xml version="1.0" standalone="no"?>
<!DOCTYPE svg PUBLIC "-//W3C//DTD SVG 20010904//EN"
 "http://www.w3.org/TR/2001/REC-SVG-20010904/DTD/svg10.dtd">
<svg version="1.0" xmlns="http://www.w3.org/2000/svg"
 width="841.000000pt" height="159.000000pt" viewBox="0 0 841.000000 159.000000"
 preserveAspectRatio="xMidYMid meet">

<g transform="translate(0.000000,159.000000) scale(0.100000,-0.100000)"
fill="#000000" stroke="none">
<path d="M1693 1428 c-5 -7 -33 -67 -62 -133 -30 -66 -77 -163 -106 -215 -29
-52 -118 -232 -199 -400 -81 -168 -161 -332 -177 -365 -16 -33 -29 -62 -29
-65 0 -8 243 -2 251 7 4 4 33 66 65 138 32 71 87 177 122 235 60 97 119 227
136 293 9 38 26 30 55 -24 13 -24 59 -103 102 -175 43 -72 94 -171 114 -220
21 -49 57 -126 82 -171 l45 -83 119 0 c97 0 119 3 119 14 0 8 -5 18 -11 21 -6
4 -32 50 -58 104 -68 135 -177 344 -336 641 -74 140 -152 290 -173 332 -20 42
-40 77 -43 77 -4 1 -11 -5 -16 -11z"/>
<path d="M3742 1365 c-103 -31 -129 -44 -214 -107 -119 -87 -184 -197 -210
-350 -18 -110 15 -268 79 -377 61 -104 182 -203 311 -254 70 -28 87 -31 192
-31 94 0 125 4 169 22 179 71 311 205 367 372 14 42 18 86 19 185 0 159 -21
233 -94 328 -147 191 -401 278 -619 212z m299 -247 c71 -36 125 -89 158 -158
22 -47 26 -69 26 -145 0 -68 -5 -99 -19 -128 -55 -111 -185 -198 -306 -205
-97 -6 -168 24 -246 103 -81 82 -108 150 -101 248 16 195 156 320 352 314 64
-2 91 -7 136 -29z"/>
<path d="M6677 1374 c-139 -31 -236 -84 -325 -177 -90 -96 -132 -210 -132
-357 1 -162 38 -276 127 -382 212 -253 537 -293 802 -99 36 26 75 51 85 55 16
6 13 11 -25 34 -46 30 -139 126 -139 145 0 6 -17 -5 -37 -24 -72 -68 -142 -94
-248 -94 -87 0 -163 34 -234 105 -74 74 -96 127 -96 235 0 109 22 162 100 240
73 74 146 99 269 93 80 -4 101 -9 153 -37 34 -18 71 -43 83 -56 l22 -23 34 37
c18 21 52 51 74 66 22 15 40 31 40 36 0 14 -143 130 -190 154 -109 56 -249 75
-363 49z"/>
<path d="M565 1361 c-159 -46 -294 -160 -360 -302 -66 -145 -60 -350 15 -499
61 -120 215 -250 350 -296 41 -14 84 -19 165 -19 101 0 116 3 190 33 44 18
115 58 158 88 l77 55 -68 67 c-38 37 -75 78 -84 91 l-15 25 -35 -35 c-20 -20
-65 -48 -102 -62 -203 -82 -414 32 -455 244 -28 139 54 306 176 361 135 60
270 40 391 -59 l44 -36 74 74 c41 40 74 76 74 80 0 12 -155 126 -207 153 -114
57 -268 72 -388 37z"/>
<path d="M2280 1372 c0 -1 13 -20 29 -42 l28 -39 -3 -428 -4 -428 32 -65 c17
-36 40 -77 50 -93 l19 -27 252 0 c327 0 405 16 502 102 80 70 116 209 80 305
-29 76 -70 129 -120 153 l-45 22 54 58 c41 45 57 71 66 110 14 56 7 133 -15
186 -24 57 -101 131 -164 156 -53 21 -73 23 -409 28 -193 3 -352 4 -352 2z
m691 -260 c48 -54 36 -138 -26 -173 -24 -13 -66 -19 -200 -24 -93 -3 -174 -2
-180 2 -6 5 -9 54 -7 123 l4 115 190 -5 190 -5 29 -33z m13 -407 c62 -26 84
-101 47 -161 -31 -50 -80 -62 -288 -68 l-182 -5 -3 121 c-2 66 -1 122 1 124 2
2 91 4 196 4 149 0 201 -3 229 -15z"/>
<path d="M4331 1371 c-23 -6 -19 -13 74 -114 l99 -107 103 0 103 0 2 -447 3
-448 113 -3 112 -3 0 323 c0 178 3 380 7 450 l6 127 151 3 151 3 11 75 c6 41
14 91 18 110 l7 35 -468 1 c-257 0 -479 -2 -492 -5z"/>
<path d="M7315 1372 c-6 -4 -11 -211 -14 -571 -3 -527 -2 -564 14 -557 9 3 64
6 121 6 l105 0 -1 225 -1 225 235 2 236 3 0 -156 c0 -86 3 -189 6 -230 l6 -74
114 3 113 3 3 557 c2 306 0 559 -3 562 -4 3 -60 4 -124 2 l-117 -3 3 -222 3
-222 -239 -3 -240 -2 3 225 3 225 -95 0 c-52 0 -100 2 -108 5 -7 3 -17 1 -23
-3z"/>
<path d="M5364 1359 c-9 -16 -17 -881 -9 -1007 l7 -102 431 2 c378 3 431 5
428 18 -2 8 -6 60 -9 115 l-4 101 -319 -4 -319 -3 0 110 0 111 275 0 275 0 0
104 c0 99 -1 104 -22 110 -13 3 -136 6 -275 6 l-252 0 1 115 1 115 313 0 313
0 6 43 c3 23 5 71 3 107 l-3 65 -417 3 c-301 1 -419 -1 -424 -9z"/>
<path d="M1631 559 c-50 -66 -89 -124 -86 -130 8 -11 355 -12 355 0 0 4 -18
35 -41 67 -22 33 -59 87 -82 121 -23 35 -45 63 -48 63 -4 0 -48 -54 -98 -121z"/>
</g>
</svg>
