<?xml version="1.0" encoding="iso-8859-1"?>
<!-- Generator: Adobe Illustrator 19.0.0, SVG Export Plug-In . SVG Version: 6.00 Build 0)  -->
<!-- License: CC0. Made by SVG Repo: https://www.svgrepo.com/svg/292124/wrench-mechanical -->
<svg version="1.1" id="Layer_1" xmlns="http://www.w3.org/2000/svg" xmlns:xlink="http://www.w3.org/1999/xlink" x="0px" y="0px"
	 viewBox="0 0 512 512" style="enable-background:new 0 0 512 512;" xml:space="preserve">
<circle style="fill:#FF0647;" cx="256" cy="256" r="256"/>
<path style="fill:#B7023A;" d="M511.238,275.877L385.746,150.385l-60.935-7.408l-27.334,9.976l-81.77,84.496l44.858,44.858
	l-108.287,70.516l-30.958,30.958l2.195,18.577l108.513,108.513c7.894,0.733,15.888,1.126,23.973,1.126
	C390.696,511.998,501.093,407.973,511.238,275.877z"/>
<path id="SVGCleanerId_0" style="fill:#FFFFFF;" d="M215.707,237.449L215.707,237.449c-5.916-5.916-5.916-15.508,0-21.425
	l53.563-53.563l21.425,21.425l-53.563,53.563C231.217,243.365,221.624,243.365,215.707,237.449z"/>
<path id="SVGCleanerId_1" style="fill:#FFFFFF;" d="M394.049,174.676L394.049,174.676c4.415-4.415,4.415-11.573,0-15.988
	l-54.617-54.617c-4.415-4.415-11.573-4.415-15.987,0l-47.964,47.963c-4.415,4.415-4.415,11.573,0,15.988l48.609,48.609
	c4.415,4.415,11.573,4.415,15.988,0l0,0c4.415-4.415,4.415-11.573,0-15.988l-15.988-15.988c-4.415-4.415-4.415-11.573,0-15.988
	l15.988-15.988c4.415-4.415,11.573-4.415,15.987,0l21.995,21.995C382.476,179.091,389.634,179.091,394.049,174.676z"/>
<rect id="SVGCleanerId_2" x="229.105" y="196.848" transform="matrix(-0.7071 -0.7071 0.7071 -0.7071 286.2703 525.9321)" style="fill:#D0D1D3;" width="45.909" height="13.658"/>
<rect id="SVGCleanerId_3" x="218.726" y="207.249" transform="matrix(-0.7071 -0.7071 0.7071 -0.7071 261.1982 536.3478)" style="fill:#D0D1D3;" width="45.909" height="13.658"/>
<g>
	<path id="SVGCleanerId_0_1_" style="fill:#FFFFFF;" d="M215.707,237.449L215.707,237.449c-5.916-5.916-5.916-15.508,0-21.425
		l53.563-53.563l21.425,21.425l-53.563,53.563C231.217,243.365,221.624,243.365,215.707,237.449z"/>
</g>
<g>
	<path id="SVGCleanerId_1_1_" style="fill:#FFFFFF;" d="M394.049,174.676L394.049,174.676c4.415-4.415,4.415-11.573,0-15.988
		l-54.617-54.617c-4.415-4.415-11.573-4.415-15.987,0l-47.964,47.963c-4.415,4.415-4.415,11.573,0,15.988l48.609,48.609
		c4.415,4.415,11.573,4.415,15.988,0l0,0c4.415-4.415,4.415-11.573,0-15.988l-15.988-15.988c-4.415-4.415-4.415-11.573,0-15.988
		l15.988-15.988c4.415-4.415,11.573-4.415,15.987,0l21.995,21.995C382.476,179.091,389.634,179.091,394.049,174.676z"/>
</g>
<g>
	<path style="fill:#D0D1D3;" d="M324.091,216.631c4.415,4.415,11.573,4.415,15.988,0c4.415-4.415,4.415-11.573,0-15.988
		l-8.042-8.042l-15.987,15.988L324.091,216.631z"/>
	<path style="fill:#D0D1D3;" d="M380.001,144.639l-15.988,15.988l14.048,14.048c4.415,4.415,11.573,4.415,15.987,0
		c4.415-4.415,4.415-11.573,0-15.988L380.001,144.639z"/>
</g>
<g>
	
		<rect id="SVGCleanerId_2_1_" x="229.105" y="196.848" transform="matrix(-0.7071 -0.7071 0.7071 -0.7071 286.2703 525.9321)" style="fill:#D0D1D3;" width="45.909" height="13.658"/>
</g>
<g>
	
		<rect id="SVGCleanerId_3_1_" x="218.726" y="207.249" transform="matrix(-0.7071 -0.7071 0.7071 -0.7071 261.1982 536.3478)" style="fill:#D0D1D3;" width="45.909" height="13.658"/>
</g>
<path style="fill:#BDFBFD;" d="M347.289,197.63L294.7,145.041c-11.833-11.833-31.018-11.833-42.851,0l0,0
	c-11.833,11.833-11.833,31.018,0,42.851l12.012,12.012c5.318,5.318,5.318,13.941,0,19.261L123.514,359.512
	c-11.833,11.833-11.833,31.018,0,42.849c11.833,11.833,31.018,11.833,42.851,0l180.924-180.924
	C353.863,214.861,353.863,204.204,347.289,197.63z M143.946,398.219c-7.854,0-14.222-6.368-14.222-14.222
	c0-7.854,6.368-14.222,14.222-14.222s14.222,6.368,14.222,14.222C158.168,391.851,151.8,398.219,143.946,398.219z"/>
<path style="fill:#00E4ED;" d="M337.149,187.49L152.205,372.434c3.605,2.581,5.963,6.792,5.963,11.564
	c0,7.854-6.368,14.222-14.222,14.222c-4.772,0-8.983-2.358-11.564-5.963l-9.454,9.454c0.202,0.214,0.378,0.44,0.586,0.648
	c11.833,11.833,31.018,11.833,42.851,0l180.924-180.924c6.573-6.573,6.573-17.232,0-23.805L337.149,187.49z"/>
<path style="fill:#BDFBFD;" d="M251.849,145.039L251.849,145.039c-11.833,11.833-11.833,31.018,0,42.851l3.003,3.001v-48.447
	C253.812,143.243,252.8,144.089,251.849,145.039z"/>
</svg>
